# xmcd
#
# Track frame offsets: 
#        150
#        27407
#        47690
#        87225
#        112887
#        127987
#        145830
#        171112
#
# Disc length: 2635 seconds
#
# Revision: 1
# Processed by: cddbd v1.5.1PL2 Copyright (c) Steve Scherf et al.
# Submitted via: ExactAudioCopy v0.95a5
#
DISCID=610a4908
DTITLE=Van Morrison - Wild Night In California [CD 1)
DYEAR=1971
DGENRE=Rock
TTITLE0=I've Been Working
TTITLE1=Wild Night
TTITLE2=Ballerina
TTITLE3=Into The Mystic
TTITLE4=These Dreams Of You
TTITLE5=Blue Money
TTITLE6=Friday's Child
TTITLE7=Domino
EXTD=2 CD Set - Disk 1\nSemi-bootleg recorded live at Pacific High Stu
EXTD=dios, Marin County, California. \nNovember 1971
EXTT0=
EXTT1=
EXTT2=
EXTT3=
EXTT4=
EXTT5=
EXTT6=
EXTT7=
PLAYORDER=
